<!DOCTYPE svg PUBLIC "-//W3C//DTD SVG 1.1//EN" "http://www.w3.org/Graphics/SVG/1.1/DTD/svg11.dtd">
<!-- Uploaded to: SVG Repo, www.svgrepo.com, Transformed by: SVG Repo Mixer Tools -->
<svg fill="#000000" height="800px" width="800px" version="1.1" id="Layer_1" xmlns="http://www.w3.org/2000/svg" xmlns:xlink="http://www.w3.org/1999/xlink" viewBox="-33 -33 396.00 396.00" xml:space="preserve">
<g id="SVGRepo_bgCarrier" stroke-width="0" transform="translate(69.30000000000001,69.30000000000001), scale(0.58)">
<rect x="-33" y="-33" width="396.00" height="396.00" rx="198" fill="#ffffff" strokewidth="0"/>
</g>
<g id="SVGRepo_tracerCarrier" stroke-linecap="round" stroke-linejoin="round"/>
<g id="SVGRepo_iconCarrier"> <g id="XMLID_28_"> <path id="XMLID_29_" d="M165,0C120.926,0,79.492,17.163,48.328,48.327c-64.334,64.333-64.334,169.011-0.002,233.345 C79.49,312.837,120.926,330,165,330c44.072,0,85.508-17.163,116.672-48.328c64.334-64.334,64.334-169.012,0-233.345 C250.508,17.163,209.072,0,165,0z M239.246,239.245c-2.93,2.929-6.768,4.394-10.607,4.394c-3.838,0-7.678-1.465-10.605-4.394 L165,186.213l-53.033,53.033c-2.93,2.929-6.768,4.394-10.607,4.394c-3.838,0-7.678-1.465-10.605-4.394 c-5.859-5.857-5.859-15.355,0-21.213L143.787,165l-53.033-53.033c-5.859-5.857-5.859-15.355,0-21.213 c5.857-5.857,15.355-5.857,21.213,0L165,143.787l53.031-53.033c5.857-5.857,15.355-5.857,21.213,0 c5.859,5.857,5.859,15.355,0,21.213L186.213,165l53.033,53.032C245.104,223.89,245.104,233.388,239.246,239.245z"/> </g> </g>
</svg>